<mxfile host="app.diagrams.net" modified="2022-02-18T17:43:34.724Z" agent="5.0 (Windows NT 10.0; Win64; x64) AppleWebKit/537.36 (KHTML, like Gecko) Chrome/98.0.4758.82 Safari/537.36" etag="H3zJc0CvIQl-MNztII8J" version="16.5.6" type="github">
  <diagram name="Page-1" id="c7488fd3-1785-93aa-aadb-54a6760d102a">
    <mxGraphModel dx="1719" dy="973" grid="1" gridSize="10" guides="1" tooltips="1" connect="1" arrows="1" fold="1" page="1" pageScale="1" pageWidth="1169" pageHeight="827" background="none" math="0" shadow="0">
      <root>
        <mxCell id="0" />
        <mxCell id="1" parent="0" />
        <mxCell id="2b4e8129b02d487f-1" value="TICKET 215 - time sequence of process steps" style="swimlane;html=1;childLayout=stackLayout;horizontal=1;startSize=20;horizontalStack=0;rounded=0;shadow=0;labelBackgroundColor=none;strokeWidth=1;fontFamily=Verdana;fontSize=8;align=center;" parent="1" vertex="1">
          <mxGeometry x="190" y="100" width="1090" height="890" as="geometry" />
        </mxCell>
        <mxCell id="2b4e8129b02d487f-2" value="trigger-cloning.sh" style="swimlane;html=1;startSize=20;horizontal=0;fontFamily=Courier New;fontSize=8;" parent="2b4e8129b02d487f-1" vertex="1">
          <mxGeometry y="20" width="1090" height="120" as="geometry" />
        </mxCell>
        <mxCell id="2b4e8129b02d487f-18" style="edgeStyle=orthogonalEdgeStyle;rounded=0;html=1;labelBackgroundColor=none;startArrow=none;startFill=0;startSize=5;endArrow=classicThin;endFill=1;endSize=5;jettySize=auto;orthogonalLoop=1;strokeWidth=1;fontFamily=Verdana;fontSize=8" parent="2b4e8129b02d487f-2" source="2b4e8129b02d487f-5" target="2b4e8129b02d487f-6" edge="1">
          <mxGeometry relative="1" as="geometry" />
        </mxCell>
        <mxCell id="2b4e8129b02d487f-5" value="PROD&lt;br&gt;xor&lt;br&gt;TEST" style="ellipse;whiteSpace=wrap;html=1;rounded=0;shadow=0;labelBackgroundColor=none;strokeWidth=1;fontFamily=Verdana;fontSize=8;align=center;movableLabel=1;" parent="2b4e8129b02d487f-2" vertex="1">
          <mxGeometry x="212" y="60" width="30" height="30" as="geometry">
            <mxPoint x="-2" y="-34" as="offset" />
          </mxGeometry>
        </mxCell>
        <mxCell id="2b4e8129b02d487f-6" value="UI (e.g. REST)" style="rounded=1;whiteSpace=wrap;html=1;shadow=0;labelBackgroundColor=none;strokeWidth=1;fontFamily=Verdana;fontSize=8;align=center;" parent="2b4e8129b02d487f-2" vertex="1">
          <mxGeometry x="272" y="56.49999999999997" width="70" height="37" as="geometry" />
        </mxCell>
        <mxCell id="8-xNJwOsNSznoQY5V4Vt-67" style="edgeStyle=orthogonalEdgeStyle;rounded=0;orthogonalLoop=1;jettySize=auto;html=1;entryX=0;entryY=0.5;entryDx=0;entryDy=0;fontFamily=Courier New;fontSize=8;endArrow=classic;endFill=1;strokeColor=#000000;" edge="1" parent="2b4e8129b02d487f-2" source="2b4e8129b02d487f-9" target="2b4e8129b02d487f-11">
          <mxGeometry relative="1" as="geometry" />
        </mxCell>
        <mxCell id="2b4e8129b02d487f-9" value="message" style="rounded=1;whiteSpace=wrap;html=1;shadow=0;labelBackgroundColor=none;strokeWidth=1;fontFamily=Verdana;fontSize=8;align=center;" parent="2b4e8129b02d487f-2" vertex="1">
          <mxGeometry x="627.5" y="56.5" width="154.5" height="37" as="geometry" />
        </mxCell>
        <mxCell id="2b4e8129b02d487f-11" value="stop" style="ellipse;whiteSpace=wrap;html=1;rounded=0;shadow=0;labelBackgroundColor=none;strokeWidth=2;fontFamily=Verdana;fontSize=8;align=center;" parent="2b4e8129b02d487f-2" vertex="1">
          <mxGeometry x="855" y="60" width="30" height="30" as="geometry" />
        </mxCell>
        <mxCell id="8-xNJwOsNSznoQY5V4Vt-18" value="triggers&lt;br&gt;manually" style="shape=actor;whiteSpace=wrap;html=1;fontSize=8;labelPadding=0;strokeOpacity=100;movableLabel=1;align=center;" vertex="1" parent="2b4e8129b02d487f-2">
          <mxGeometry x="60" y="53.5" width="20" height="40" as="geometry">
            <mxPoint y="-33" as="offset" />
          </mxGeometry>
        </mxCell>
        <mxCell id="2b4e8129b02d487f-24" value="&lt;i&gt;{Instance ID}&lt;/i&gt;" style="edgeStyle=orthogonalEdgeStyle;rounded=0;html=1;labelBackgroundColor=none;startArrow=none;startFill=0;startSize=5;endArrow=classicThin;endFill=1;endSize=5;jettySize=auto;orthogonalLoop=1;strokeWidth=1;fontFamily=Verdana;fontSize=8;fontColor=#1B0AFF;" parent="2b4e8129b02d487f-1" source="2b4e8129b02d487f-6" target="2b4e8129b02d487f-12" edge="1">
          <mxGeometry x="0.6244" y="-35" relative="1" as="geometry">
            <mxPoint as="offset" />
          </mxGeometry>
        </mxCell>
        <mxCell id="2b4e8129b02d487f-3" value="get_newest_db_snapshotid.bash" style="swimlane;html=1;startSize=20;horizontal=0;fontSize=8;fontFamily=Courier New;" parent="2b4e8129b02d487f-1" vertex="1">
          <mxGeometry y="140" width="1090" height="160" as="geometry" />
        </mxCell>
        <mxCell id="8-xNJwOsNSznoQY5V4Vt-2" value="&lt;font style=&quot;font-size: 8px&quot;&gt;&lt;i&gt;{Source volume ID}&lt;/i&gt;&lt;br&gt;&lt;/font&gt;" style="edgeStyle=orthogonalEdgeStyle;rounded=0;orthogonalLoop=1;jettySize=auto;html=1;exitX=1;exitY=0.5;exitDx=0;exitDy=0;fontColor=#1B0AFF;" edge="1" parent="2b4e8129b02d487f-3" target="8-xNJwOsNSznoQY5V4Vt-1">
          <mxGeometry x="0.0001" y="17" relative="1" as="geometry">
            <mxPoint x="342" y="68.49999999999989" as="sourcePoint" />
            <mxPoint x="412" y="68.49999999999989" as="targetPoint" />
            <Array as="points" />
            <mxPoint as="offset" />
          </mxGeometry>
        </mxCell>
        <mxCell id="2b4e8129b02d487f-12" value="select the&lt;br&gt;data volume" style="rounded=1;whiteSpace=wrap;html=1;shadow=0;labelBackgroundColor=none;strokeWidth=1;fontFamily=Verdana;fontSize=8;align=center;" parent="2b4e8129b02d487f-3" vertex="1">
          <mxGeometry x="272" y="49.99999999999996" width="70" height="37" as="geometry" />
        </mxCell>
        <mxCell id="8-xNJwOsNSznoQY5V4Vt-1" value="filter the&lt;br&gt;latest snapshot" style="rounded=1;whiteSpace=wrap;html=1;shadow=0;labelBackgroundColor=none;strokeWidth=1;fontFamily=Verdana;fontSize=8;align=center;" vertex="1" parent="2b4e8129b02d487f-3">
          <mxGeometry x="468" y="50" width="70" height="37" as="geometry" />
        </mxCell>
        <mxCell id="8-xNJwOsNSznoQY5V4Vt-50" value="ITS-263" style="text;html=1;strokeColor=none;fillColor=none;align=center;verticalAlign=middle;whiteSpace=wrap;overflow=hidden;fontFamily=Courier New;fontSize=8;" vertex="1" parent="2b4e8129b02d487f-3">
          <mxGeometry x="525" width="40" height="20" as="geometry" />
        </mxCell>
        <mxCell id="8-xNJwOsNSznoQY5V4Vt-56" value="Input parameters" style="swimlane;fontStyle=0;childLayout=stackLayout;horizontal=1;startSize=26;fillColor=none;horizontalStack=0;resizeParent=1;resizeParentMax=0;resizeLast=0;collapsible=1;marginBottom=0;fontFamily=Courier New;fontSize=8;strokeWidth=1;" vertex="1" parent="2b4e8129b02d487f-3">
          <mxGeometry x="20" width="140" height="52" as="geometry">
            <mxRectangle x="20" width="80" height="26" as="alternateBounds" />
          </mxGeometry>
        </mxCell>
        <mxCell id="8-xNJwOsNSznoQY5V4Vt-57" value="VolumeID: FIXED*" style="text;strokeColor=none;fillColor=none;align=left;verticalAlign=top;spacingLeft=4;spacingRight=4;overflow=hidden;rotatable=0;points=[[0,0.5],[1,0.5]];portConstraint=eastwest;fontFamily=Courier New;fontSize=8;" vertex="1" parent="8-xNJwOsNSznoQY5V4Vt-56">
          <mxGeometry y="26" width="140" height="26" as="geometry" />
        </mxCell>
        <mxCell id="8-xNJwOsNSznoQY5V4Vt-61" value="Output" style="swimlane;fontStyle=0;childLayout=stackLayout;horizontal=1;startSize=26;fillColor=none;horizontalStack=0;resizeParent=1;resizeParentMax=0;resizeLast=0;collapsible=1;marginBottom=0;fontFamily=Courier New;fontSize=8;strokeWidth=1;" vertex="1" parent="2b4e8129b02d487f-3">
          <mxGeometry x="930" width="160" height="52" as="geometry">
            <mxRectangle x="20" width="80" height="26" as="alternateBounds" />
          </mxGeometry>
        </mxCell>
        <mxCell id="8-xNJwOsNSznoQY5V4Vt-62" value="FILE:Â .db_snapshotid.var" style="text;strokeColor=none;fillColor=none;align=left;verticalAlign=top;spacingLeft=4;spacingRight=4;overflow=hidden;rotatable=0;points=[[0,0.5],[1,0.5]];portConstraint=eastwest;fontFamily=Courier New;fontSize=8;" vertex="1" parent="8-xNJwOsNSznoQY5V4Vt-61">
          <mxGeometry y="26" width="160" height="26" as="geometry" />
        </mxCell>
        <mxCell id="2b4e8129b02d487f-4" value="create_db_volume.bash" style="swimlane;html=1;startSize=20;horizontal=0;fontSize=8;fontFamily=Courier New;" parent="2b4e8129b02d487f-1" vertex="1">
          <mxGeometry y="300" width="1090" height="120" as="geometry">
            <mxRectangle y="320" width="680" height="20" as="alternateBounds" />
          </mxGeometry>
        </mxCell>
        <mxCell id="8-xNJwOsNSznoQY5V4Vt-31" value="&lt;i&gt;{Cloned volume ID}&lt;/i&gt;" style="edgeStyle=orthogonalEdgeStyle;rounded=0;orthogonalLoop=1;jettySize=auto;html=1;entryX=0.033;entryY=0.493;entryDx=0;entryDy=0;entryPerimeter=0;fontSize=8;strokeColor=#000000;fontColor=#00CC00;" edge="1" parent="2b4e8129b02d487f-4" source="2b4e8129b02d487f-14" target="8-xNJwOsNSznoQY5V4Vt-23">
          <mxGeometry x="-0.0144" y="20" relative="1" as="geometry">
            <mxPoint as="offset" />
          </mxGeometry>
        </mxCell>
        <mxCell id="2b4e8129b02d487f-14" value="create new&lt;br&gt;data volume" style="rounded=1;whiteSpace=wrap;html=1;shadow=0;labelBackgroundColor=none;strokeWidth=1;fontFamily=Verdana;fontSize=8;align=center;" parent="2b4e8129b02d487f-4" vertex="1">
          <mxGeometry x="468" y="41.50000000000003" width="70" height="37" as="geometry" />
        </mxCell>
        <mxCell id="8-xNJwOsNSznoQY5V4Vt-26" value="yes" style="edgeStyle=orthogonalEdgeStyle;rounded=0;orthogonalLoop=1;jettySize=auto;html=1;fontSize=8;strokeColor=#00CC00;" edge="1" parent="2b4e8129b02d487f-4" source="8-xNJwOsNSznoQY5V4Vt-23">
          <mxGeometry x="-0.2781" y="-13" relative="1" as="geometry">
            <mxPoint x="663" y="120" as="targetPoint" />
            <mxPoint x="-5" y="3" as="offset" />
          </mxGeometry>
        </mxCell>
        <mxCell id="8-xNJwOsNSznoQY5V4Vt-23" value="created?" style="strokeWidth=1;html=1;shape=mxgraph.flowchart.decision;whiteSpace=wrap;fontSize=8;" vertex="1" parent="2b4e8129b02d487f-4">
          <mxGeometry x="633.75" y="32" width="57.5" height="56" as="geometry" />
        </mxCell>
        <mxCell id="8-xNJwOsNSznoQY5V4Vt-51" value="ITS-266" style="text;html=1;strokeColor=none;fillColor=none;align=center;verticalAlign=middle;whiteSpace=wrap;overflow=hidden;fontFamily=Courier New;fontSize=8;" vertex="1" parent="2b4e8129b02d487f-4">
          <mxGeometry x="525" width="40" height="20" as="geometry" />
        </mxCell>
        <mxCell id="8-xNJwOsNSznoQY5V4Vt-64" value="Input parameters" style="swimlane;fontStyle=0;childLayout=stackLayout;horizontal=1;startSize=26;fillColor=none;horizontalStack=0;resizeParent=1;resizeParentMax=0;resizeLast=0;collapsible=1;marginBottom=0;fontFamily=Courier New;fontSize=8;strokeWidth=1;" vertex="1" parent="2b4e8129b02d487f-4">
          <mxGeometry x="20" width="140" height="104" as="geometry">
            <mxRectangle x="20" width="80" height="26" as="alternateBounds" />
          </mxGeometry>
        </mxCell>
        <mxCell id="8-xNJwOsNSznoQY5V4Vt-65" value="FILE: .db_snapshotid.var" style="text;strokeColor=none;fillColor=none;align=left;verticalAlign=top;spacingLeft=4;spacingRight=4;overflow=hidden;rotatable=0;points=[[0,0.5],[1,0.5]];portConstraint=eastwest;fontFamily=Courier New;fontSize=8;" vertex="1" parent="8-xNJwOsNSznoQY5V4Vt-64">
          <mxGeometry y="26" width="140" height="26" as="geometry" />
        </mxCell>
        <mxCell id="8-xNJwOsNSznoQY5V4Vt-70" value="Volume type: FIXED" style="text;strokeColor=none;fillColor=none;align=left;verticalAlign=top;spacingLeft=4;spacingRight=4;overflow=hidden;rotatable=0;points=[[0,0.5],[1,0.5]];portConstraint=eastwest;fontFamily=Courier New;fontSize=8;" vertex="1" parent="8-xNJwOsNSznoQY5V4Vt-64">
          <mxGeometry y="52" width="140" height="26" as="geometry" />
        </mxCell>
        <mxCell id="8-xNJwOsNSznoQY5V4Vt-71" value="Volume IOPS: FIXED" style="text;strokeColor=none;fillColor=none;align=left;verticalAlign=top;spacingLeft=4;spacingRight=4;overflow=hidden;rotatable=0;points=[[0,0.5],[1,0.5]];portConstraint=eastwest;fontFamily=Courier New;fontSize=8;" vertex="1" parent="8-xNJwOsNSznoQY5V4Vt-64">
          <mxGeometry y="78" width="140" height="26" as="geometry" />
        </mxCell>
        <mxCell id="8-xNJwOsNSznoQY5V4Vt-68" value="Output" style="swimlane;fontStyle=0;childLayout=stackLayout;horizontal=1;startSize=26;fillColor=none;horizontalStack=0;resizeParent=1;resizeParentMax=0;resizeLast=0;collapsible=1;marginBottom=0;fontFamily=Courier New;fontSize=8;strokeWidth=1;" vertex="1" parent="2b4e8129b02d487f-4">
          <mxGeometry x="930" width="160" height="52" as="geometry">
            <mxRectangle x="20" width="80" height="26" as="alternateBounds" />
          </mxGeometry>
        </mxCell>
        <mxCell id="8-xNJwOsNSznoQY5V4Vt-69" value="FILE:Â .cloned_db_volume.var" style="text;strokeColor=none;fillColor=none;align=left;verticalAlign=top;spacingLeft=4;spacingRight=4;overflow=hidden;rotatable=0;points=[[0,0.5],[1,0.5]];portConstraint=eastwest;fontFamily=Courier New;fontSize=8;" vertex="1" parent="8-xNJwOsNSznoQY5V4Vt-68">
          <mxGeometry y="26" width="160" height="26" as="geometry" />
        </mxCell>
        <mxCell id="8-xNJwOsNSznoQY5V4Vt-3" value="shut_db.bash" style="swimlane;html=1;startSize=20;horizontal=0;fontSize=8;fontFamily=Courier New;" vertex="1" parent="2b4e8129b02d487f-1">
          <mxGeometry y="420" width="1090" height="90" as="geometry">
            <mxRectangle y="470" width="680" height="20" as="alternateBounds" />
          </mxGeometry>
        </mxCell>
        <mxCell id="8-xNJwOsNSznoQY5V4Vt-17" value="shutdown&lt;br&gt;vm" style="rounded=1;whiteSpace=wrap;html=1;shadow=0;labelBackgroundColor=none;strokeWidth=1;fontFamily=Verdana;fontSize=8;align=center;" vertex="1" parent="8-xNJwOsNSznoQY5V4Vt-3">
          <mxGeometry x="627.5" y="26.5" width="70" height="37" as="geometry" />
        </mxCell>
        <mxCell id="8-xNJwOsNSznoQY5V4Vt-52" value="ITS-264" style="text;html=1;strokeColor=none;fillColor=none;align=center;verticalAlign=middle;whiteSpace=wrap;overflow=hidden;fontFamily=Courier New;fontSize=8;" vertex="1" parent="8-xNJwOsNSznoQY5V4Vt-3">
          <mxGeometry x="525" width="40" height="20" as="geometry" />
        </mxCell>
        <mxCell id="8-xNJwOsNSznoQY5V4Vt-72" value="Input parameters" style="swimlane;fontStyle=0;childLayout=stackLayout;horizontal=1;startSize=26;fillColor=none;horizontalStack=0;resizeParent=1;resizeParentMax=0;resizeLast=0;collapsible=1;marginBottom=0;fontFamily=Courier New;fontSize=8;strokeWidth=1;" vertex="1" parent="8-xNJwOsNSznoQY5V4Vt-3">
          <mxGeometry x="20" width="140" height="52" as="geometry">
            <mxRectangle x="20" width="80" height="26" as="alternateBounds" />
          </mxGeometry>
        </mxCell>
        <mxCell id="8-xNJwOsNSznoQY5V4Vt-73" value="Instance: FIXED" style="text;strokeColor=none;fillColor=none;align=left;verticalAlign=top;spacingLeft=4;spacingRight=4;overflow=hidden;rotatable=0;points=[[0,0.5],[1,0.5]];portConstraint=eastwest;fontFamily=Courier New;fontSize=8;" vertex="1" parent="8-xNJwOsNSznoQY5V4Vt-72">
          <mxGeometry y="26" width="140" height="26" as="geometry" />
        </mxCell>
        <mxCell id="8-xNJwOsNSznoQY5V4Vt-75" value="Output" style="swimlane;fontStyle=0;childLayout=stackLayout;horizontal=1;startSize=26;fillColor=none;horizontalStack=0;resizeParent=1;resizeParentMax=0;resizeLast=0;collapsible=1;marginBottom=0;fontFamily=Courier New;fontSize=8;strokeWidth=1;" vertex="1" parent="8-xNJwOsNSznoQY5V4Vt-3">
          <mxGeometry x="930" y="-0.5" width="160" height="52" as="geometry">
            <mxRectangle x="20" width="80" height="26" as="alternateBounds" />
          </mxGeometry>
        </mxCell>
        <mxCell id="8-xNJwOsNSznoQY5V4Vt-76" value="-" style="text;strokeColor=none;fillColor=none;align=left;verticalAlign=top;spacingLeft=4;spacingRight=4;overflow=hidden;rotatable=0;points=[[0,0.5],[1,0.5]];portConstraint=eastwest;fontFamily=Courier New;fontSize=8;" vertex="1" parent="8-xNJwOsNSznoQY5V4Vt-75">
          <mxGeometry y="26" width="160" height="26" as="geometry" />
        </mxCell>
        <mxCell id="8-xNJwOsNSznoQY5V4Vt-11" value="&lt;i&gt;{Source volume ID}&lt;/i&gt;" style="edgeStyle=orthogonalEdgeStyle;rounded=0;orthogonalLoop=1;jettySize=auto;html=1;fontSize=8;fontColor=#1B0AFF;" edge="1" parent="2b4e8129b02d487f-1" source="8-xNJwOsNSznoQY5V4Vt-1" target="2b4e8129b02d487f-14">
          <mxGeometry x="0.5699" y="-35" relative="1" as="geometry">
            <mxPoint as="offset" />
          </mxGeometry>
        </mxCell>
        <mxCell id="8-xNJwOsNSznoQY5V4Vt-13" value="detach_db_volume.bash" style="swimlane;html=1;startSize=20;horizontal=0;fontSize=8;fontFamily=Courier New;" vertex="1" parent="2b4e8129b02d487f-1">
          <mxGeometry y="510" width="1090" height="150" as="geometry">
            <mxRectangle y="620" width="680" height="20" as="alternateBounds" />
          </mxGeometry>
        </mxCell>
        <mxCell id="8-xNJwOsNSznoQY5V4Vt-27" value="detach obsolete&lt;br&gt;data volume" style="rounded=1;whiteSpace=wrap;html=1;shadow=0;labelBackgroundColor=none;strokeWidth=1;fontFamily=Verdana;fontSize=8;align=center;" vertex="1" parent="8-xNJwOsNSznoQY5V4Vt-13">
          <mxGeometry x="627.5" y="50" width="70" height="37" as="geometry" />
        </mxCell>
        <mxCell id="8-xNJwOsNSznoQY5V4Vt-53" value="ITS-265" style="text;html=1;strokeColor=none;fillColor=none;align=center;verticalAlign=middle;whiteSpace=wrap;overflow=hidden;fontFamily=Courier New;fontSize=8;" vertex="1" parent="8-xNJwOsNSznoQY5V4Vt-13">
          <mxGeometry x="525" width="40" height="20" as="geometry" />
        </mxCell>
        <mxCell id="8-xNJwOsNSznoQY5V4Vt-77" value="Input parameters" style="swimlane;fontStyle=0;childLayout=stackLayout;horizontal=1;startSize=26;fillColor=none;horizontalStack=0;resizeParent=1;resizeParentMax=0;resizeLast=0;collapsible=1;marginBottom=0;fontFamily=Courier New;fontSize=8;strokeWidth=1;" vertex="1" parent="8-xNJwOsNSznoQY5V4Vt-13">
          <mxGeometry x="20" width="140" height="104" as="geometry">
            <mxRectangle x="20" width="80" height="26" as="alternateBounds" />
          </mxGeometry>
        </mxCell>
        <mxCell id="8-xNJwOsNSznoQY5V4Vt-81" value="Instance: FIXED" style="text;strokeColor=none;fillColor=none;align=left;verticalAlign=top;spacingLeft=4;spacingRight=4;overflow=hidden;rotatable=0;points=[[0,0.5],[1,0.5]];portConstraint=eastwest;fontFamily=Courier New;fontSize=8;" vertex="1" parent="8-xNJwOsNSznoQY5V4Vt-77">
          <mxGeometry y="26" width="140" height="26" as="geometry" />
        </mxCell>
        <mxCell id="8-xNJwOsNSznoQY5V4Vt-80" value="Device: FIXED" style="text;strokeColor=none;fillColor=none;align=left;verticalAlign=top;spacingLeft=4;spacingRight=4;overflow=hidden;rotatable=0;points=[[0,0.5],[1,0.5]];portConstraint=eastwest;fontFamily=Courier New;fontSize=8;" vertex="1" parent="8-xNJwOsNSznoQY5V4Vt-77">
          <mxGeometry y="52" width="140" height="26" as="geometry" />
        </mxCell>
        <mxCell id="8-xNJwOsNSznoQY5V4Vt-84" value="Volume: determined" style="text;strokeColor=none;fillColor=none;align=left;verticalAlign=top;spacingLeft=4;spacingRight=4;overflow=hidden;rotatable=0;points=[[0,0.5],[1,0.5]];portConstraint=eastwest;fontFamily=Courier New;fontSize=8;" vertex="1" parent="8-xNJwOsNSznoQY5V4Vt-77">
          <mxGeometry y="78" width="140" height="26" as="geometry" />
        </mxCell>
        <mxCell id="8-xNJwOsNSznoQY5V4Vt-82" value="Output" style="swimlane;fontStyle=0;childLayout=stackLayout;horizontal=1;startSize=26;fillColor=none;horizontalStack=0;resizeParent=1;resizeParentMax=0;resizeLast=0;collapsible=1;marginBottom=0;fontFamily=Courier New;fontSize=8;strokeWidth=1;" vertex="1" parent="8-xNJwOsNSznoQY5V4Vt-13">
          <mxGeometry x="930" width="160" height="52" as="geometry">
            <mxRectangle x="20" width="80" height="26" as="alternateBounds" />
          </mxGeometry>
        </mxCell>
        <mxCell id="8-xNJwOsNSznoQY5V4Vt-83" value="FILE:Â .detached_db_volume.var" style="text;strokeColor=none;fillColor=none;align=left;verticalAlign=top;spacingLeft=4;spacingRight=4;overflow=hidden;rotatable=0;points=[[0,0.5],[1,0.5]];portConstraint=eastwest;fontFamily=Courier New;fontSize=8;" vertex="1" parent="8-xNJwOsNSznoQY5V4Vt-82">
          <mxGeometry y="26" width="160" height="26" as="geometry" />
        </mxCell>
        <mxCell id="8-xNJwOsNSznoQY5V4Vt-14" value="attach_db_volume.bash" style="swimlane;html=1;startSize=20;horizontal=0;fontSize=8;fontFamily=Courier New;" vertex="1" parent="2b4e8129b02d487f-1">
          <mxGeometry y="660" width="1090" height="120" as="geometry">
            <mxRectangle y="690" width="680" height="20" as="alternateBounds" />
          </mxGeometry>
        </mxCell>
        <mxCell id="8-xNJwOsNSznoQY5V4Vt-37" value="attach new&lt;br&gt;data volume" style="rounded=1;whiteSpace=wrap;html=1;shadow=0;labelBackgroundColor=none;strokeWidth=1;fontFamily=Verdana;fontSize=8;align=center;" vertex="1" parent="8-xNJwOsNSznoQY5V4Vt-14">
          <mxGeometry x="627.5" y="41.5" width="70" height="37" as="geometry" />
        </mxCell>
        <mxCell id="8-xNJwOsNSznoQY5V4Vt-54" value="ITS-267" style="text;html=1;strokeColor=none;fillColor=none;align=center;verticalAlign=middle;whiteSpace=wrap;overflow=hidden;fontFamily=Courier New;fontSize=8;" vertex="1" parent="8-xNJwOsNSznoQY5V4Vt-14">
          <mxGeometry x="525" width="40" height="20" as="geometry" />
        </mxCell>
        <mxCell id="8-xNJwOsNSznoQY5V4Vt-85" value="Input parameters" style="swimlane;fontStyle=0;childLayout=stackLayout;horizontal=1;startSize=26;fillColor=none;horizontalStack=0;resizeParent=1;resizeParentMax=0;resizeLast=0;collapsible=1;marginBottom=0;fontFamily=Courier New;fontSize=8;strokeWidth=1;" vertex="1" parent="8-xNJwOsNSznoQY5V4Vt-14">
          <mxGeometry x="20" width="140" height="104" as="geometry">
            <mxRectangle x="20" width="80" height="26" as="alternateBounds" />
          </mxGeometry>
        </mxCell>
        <mxCell id="8-xNJwOsNSznoQY5V4Vt-86" value="Instance: FIXED" style="text;strokeColor=none;fillColor=none;align=left;verticalAlign=top;spacingLeft=4;spacingRight=4;overflow=hidden;rotatable=0;points=[[0,0.5],[1,0.5]];portConstraint=eastwest;fontFamily=Courier New;fontSize=8;" vertex="1" parent="8-xNJwOsNSznoQY5V4Vt-85">
          <mxGeometry y="26" width="140" height="26" as="geometry" />
        </mxCell>
        <mxCell id="8-xNJwOsNSznoQY5V4Vt-87" value="Device: FIXED" style="text;strokeColor=none;fillColor=none;align=left;verticalAlign=top;spacingLeft=4;spacingRight=4;overflow=hidden;rotatable=0;points=[[0,0.5],[1,0.5]];portConstraint=eastwest;fontFamily=Courier New;fontSize=8;" vertex="1" parent="8-xNJwOsNSznoQY5V4Vt-85">
          <mxGeometry y="52" width="140" height="26" as="geometry" />
        </mxCell>
        <mxCell id="8-xNJwOsNSznoQY5V4Vt-88" value="Vol: .cloned_db_volume.var" style="text;strokeColor=none;fillColor=none;align=left;verticalAlign=top;spacingLeft=4;spacingRight=4;overflow=hidden;rotatable=0;points=[[0,0.5],[1,0.5]];portConstraint=eastwest;fontFamily=Courier New;fontSize=8;" vertex="1" parent="8-xNJwOsNSznoQY5V4Vt-85">
          <mxGeometry y="78" width="140" height="26" as="geometry" />
        </mxCell>
        <mxCell id="8-xNJwOsNSznoQY5V4Vt-89" value="Output" style="swimlane;fontStyle=0;childLayout=stackLayout;horizontal=1;startSize=26;fillColor=none;horizontalStack=0;resizeParent=1;resizeParentMax=0;resizeLast=0;collapsible=1;marginBottom=0;fontFamily=Courier New;fontSize=8;strokeWidth=1;" vertex="1" parent="8-xNJwOsNSznoQY5V4Vt-14">
          <mxGeometry x="930" width="160" height="52" as="geometry">
            <mxRectangle x="20" width="80" height="26" as="alternateBounds" />
          </mxGeometry>
        </mxCell>
        <mxCell id="8-xNJwOsNSznoQY5V4Vt-90" value="-" style="text;strokeColor=none;fillColor=none;align=left;verticalAlign=top;spacingLeft=4;spacingRight=4;overflow=hidden;rotatable=0;points=[[0,0.5],[1,0.5]];portConstraint=eastwest;fontFamily=Courier New;fontSize=8;" vertex="1" parent="8-xNJwOsNSznoQY5V4Vt-89">
          <mxGeometry y="26" width="160" height="26" as="geometry" />
        </mxCell>
        <mxCell id="8-xNJwOsNSznoQY5V4Vt-15" value="delete_db_volume.bash" style="swimlane;html=1;startSize=20;horizontal=0;fontSize=8;fontFamily=Courier New;" vertex="1" parent="2b4e8129b02d487f-1">
          <mxGeometry y="780" width="1090" height="110" as="geometry">
            <mxRectangle y="810" width="680" height="20" as="alternateBounds" />
          </mxGeometry>
        </mxCell>
        <mxCell id="8-xNJwOsNSznoQY5V4Vt-39" value="delete detached&lt;br&gt;volume and snapshots" style="rounded=1;whiteSpace=wrap;html=1;shadow=0;labelBackgroundColor=none;strokeWidth=1;fontFamily=Verdana;fontSize=8;align=center;" vertex="1" parent="8-xNJwOsNSznoQY5V4Vt-15">
          <mxGeometry x="468" y="40" width="70" height="37" as="geometry" />
        </mxCell>
        <mxCell id="8-xNJwOsNSznoQY5V4Vt-55" value="ITS-271" style="text;html=1;strokeColor=none;fillColor=none;align=center;verticalAlign=middle;whiteSpace=wrap;overflow=hidden;fontFamily=Courier New;fontSize=8;" vertex="1" parent="8-xNJwOsNSznoQY5V4Vt-15">
          <mxGeometry x="525" width="40" height="20" as="geometry" />
        </mxCell>
        <mxCell id="8-xNJwOsNSznoQY5V4Vt-91" value="Input parameters" style="swimlane;fontStyle=0;childLayout=stackLayout;horizontal=1;startSize=26;fillColor=none;horizontalStack=0;resizeParent=1;resizeParentMax=0;resizeLast=0;collapsible=1;marginBottom=0;fontFamily=Courier New;fontSize=8;strokeWidth=1;" vertex="1" parent="8-xNJwOsNSznoQY5V4Vt-15">
          <mxGeometry x="20" width="140" height="52" as="geometry">
            <mxRectangle x="20" width="80" height="26" as="alternateBounds" />
          </mxGeometry>
        </mxCell>
        <mxCell id="8-xNJwOsNSznoQY5V4Vt-92" value="Vol:Â .detached_db_volume.var" style="text;strokeColor=none;fillColor=none;align=left;verticalAlign=top;spacingLeft=4;spacingRight=4;overflow=hidden;rotatable=0;points=[[0,0.5],[1,0.5]];portConstraint=eastwest;fontFamily=Courier New;fontSize=8;" vertex="1" parent="8-xNJwOsNSznoQY5V4Vt-91">
          <mxGeometry y="26" width="140" height="26" as="geometry" />
        </mxCell>
        <mxCell id="8-xNJwOsNSznoQY5V4Vt-93" value="Output" style="swimlane;fontStyle=0;childLayout=stackLayout;horizontal=1;startSize=26;fillColor=none;horizontalStack=0;resizeParent=1;resizeParentMax=0;resizeLast=0;collapsible=1;marginBottom=0;fontFamily=Courier New;fontSize=8;strokeWidth=1;" vertex="1" parent="8-xNJwOsNSznoQY5V4Vt-15">
          <mxGeometry x="930" width="160" height="52" as="geometry">
            <mxRectangle x="20" width="80" height="26" as="alternateBounds" />
          </mxGeometry>
        </mxCell>
        <mxCell id="8-xNJwOsNSznoQY5V4Vt-94" value="-" style="text;strokeColor=none;fillColor=none;align=left;verticalAlign=top;spacingLeft=4;spacingRight=4;overflow=hidden;rotatable=0;points=[[0,0.5],[1,0.5]];portConstraint=eastwest;fontFamily=Courier New;fontSize=8;" vertex="1" parent="8-xNJwOsNSznoQY5V4Vt-93">
          <mxGeometry y="26" width="160" height="26" as="geometry" />
        </mxCell>
        <mxCell id="8-xNJwOsNSznoQY5V4Vt-22" value="" style="edgeStyle=orthogonalEdgeStyle;rounded=0;orthogonalLoop=1;jettySize=auto;html=1;entryX=0.5;entryY=0;entryDx=0;entryDy=0;fontSize=8;" edge="1" parent="2b4e8129b02d487f-1" target="8-xNJwOsNSznoQY5V4Vt-17">
          <mxGeometry x="0.1731" y="-27" relative="1" as="geometry">
            <mxPoint x="663" y="420" as="sourcePoint" />
            <mxPoint x="-1" as="offset" />
          </mxGeometry>
        </mxCell>
        <mxCell id="8-xNJwOsNSznoQY5V4Vt-25" value="no" style="edgeStyle=orthogonalEdgeStyle;rounded=0;orthogonalLoop=1;jettySize=auto;html=1;fontSize=8;strokeColor=#FF3333;entryX=0.227;entryY=1.065;entryDx=0;entryDy=0;entryPerimeter=0;" edge="1" parent="2b4e8129b02d487f-1" source="8-xNJwOsNSznoQY5V4Vt-23" target="2b4e8129b02d487f-9">
          <mxGeometry x="-0.9206" y="-12" relative="1" as="geometry">
            <mxPoint as="offset" />
          </mxGeometry>
        </mxCell>
        <mxCell id="8-xNJwOsNSznoQY5V4Vt-28" value="&lt;i&gt;{Obsolete volume ID}&lt;/i&gt;" style="edgeStyle=orthogonalEdgeStyle;rounded=0;orthogonalLoop=1;jettySize=auto;html=1;fontSize=8;strokeColor=#000000;fontColor=#FF3333;" edge="1" parent="2b4e8129b02d487f-1" source="8-xNJwOsNSznoQY5V4Vt-17" target="8-xNJwOsNSznoQY5V4Vt-27">
          <mxGeometry x="0.6413" y="-40" relative="1" as="geometry">
            <mxPoint as="offset" />
          </mxGeometry>
        </mxCell>
        <mxCell id="8-xNJwOsNSznoQY5V4Vt-38" value="&lt;i style=&quot;background-color: rgb(248 , 249 , 250)&quot;&gt;{Cloned volume ID}&lt;/i&gt;" style="edgeStyle=orthogonalEdgeStyle;rounded=0;orthogonalLoop=1;jettySize=auto;html=1;fontSize=8;strokeColor=#000000;fontColor=#00CC00;" edge="1" parent="2b4e8129b02d487f-1" source="8-xNJwOsNSznoQY5V4Vt-27" target="8-xNJwOsNSznoQY5V4Vt-37">
          <mxGeometry x="0.4911" y="40" relative="1" as="geometry">
            <mxPoint as="offset" />
          </mxGeometry>
        </mxCell>
        <mxCell id="8-xNJwOsNSznoQY5V4Vt-40" value="&lt;i&gt;{Obsolete volume ID}&lt;/i&gt;" style="edgeStyle=orthogonalEdgeStyle;rounded=0;orthogonalLoop=1;jettySize=auto;html=1;exitX=0;exitY=0.5;exitDx=0;exitDy=0;entryX=0.5;entryY=0;entryDx=0;entryDy=0;fontSize=8;endArrow=classic;endFill=1;strokeColor=#000000;fontColor=#FF3333;" edge="1" parent="2b4e8129b02d487f-1" source="8-xNJwOsNSznoQY5V4Vt-27" target="8-xNJwOsNSznoQY5V4Vt-39">
          <mxGeometry x="0.8844" y="-41" relative="1" as="geometry">
            <mxPoint as="offset" />
          </mxGeometry>
        </mxCell>
        <mxCell id="8-xNJwOsNSznoQY5V4Vt-47" style="edgeStyle=orthogonalEdgeStyle;rounded=0;orthogonalLoop=1;jettySize=auto;html=1;exitX=1;exitY=0.5;exitDx=0;exitDy=0;entryX=0.919;entryY=0.982;entryDx=0;entryDy=0;entryPerimeter=0;fontSize=8;endArrow=classic;endFill=1;strokeColor=#000000;" edge="1" parent="2b4e8129b02d487f-1" source="8-xNJwOsNSznoQY5V4Vt-37" target="2b4e8129b02d487f-9">
          <mxGeometry relative="1" as="geometry" />
        </mxCell>
      </root>
    </mxGraphModel>
  </diagram>
</mxfile>
